# xmcd CD database file
#
# Track frame offsets:
#	150
#	13464
#	29937
#	40214
#	51137
#	63325
#	72740
#	83598
#	92077
#	101813
#	112861
#	136747
#	150643
#	163501
#	181234
#	198582
#	211244
#	220789
#	233407
#	245967
#	258201
#	270599
#	281706
#	292342
#
# Disc length: 4060 seconds
#
# Revision: 0
# Processed by: cddbd v1.5.2PL0 Copyright (c) Steve Scherf et al.
# Submitted via: CDex 1.70beta2
#
DISCID=6a0fda18
DTITLE=Johnny Cash - Cash: Ultimate Gospel
DYEAR=2007
DGENRE=Country
TTITLE0=Here Was A Man
TTITLE1=The Preacher Said, 'Jesus Said'
TTITLE2=I Was There When It Happened
TTITLE3=Belshazzar
TTITLE4=That's Enough
TTITLE5=It Was Jesus
TTITLE6=The Old Account
TTITLE7=Swing Low,  Swing Chariot
TTITLE8=The Great Speckle Bird
TTITLE9=He 'll Understand And Say Well Done
TTITLE10=How Great Thou Art
TTITLE11=It Is No Secret
TTITLE12=He Turned Water Into Wine
TTITLE13=Were You There
TTITLE14=Troublesome Waters
TTITLE15=Peace In The Valley
TTITLE16=When The Roll Is Called Up Yonder
TTITLE17=In The Sweet By And By
TTITLE18=My Ship Will Sail
TTITLE19=Far Side Banks Of Jordan
TTITLE20=Oh Come, Angel Band
TTITLE21=Amazing Grace
TTITLE22=Daddy Sang Bass
TTITLE23=Children Go Where I Send Thee
EXTD=YEAR: 2007
EXTT0=
EXTT1=
EXTT2=
EXTT3=
EXTT4=
EXTT5=
EXTT6=
EXTT7=
EXTT8=
EXTT9=
EXTT10=
EXTT11=
EXTT12=
EXTT13=
EXTT14=
EXTT15=
EXTT16=
EXTT17=
EXTT18=
EXTT19=
EXTT20=
EXTT21=
EXTT22=
EXTT23=
PLAYORDER=
